<mxfile host="app.diagrams.net" modified="2021-05-14T10:33:57.895Z" agent="5.0 (Windows NT 10.0; Win64; x64) AppleWebKit/537.36 (KHTML, like Gecko) Chrome/90.0.4430.212 Safari/537.36" etag="0MLlx_rkEiDDqzbukRfF" version="14.6.11" type="github">
  <diagram id="zIY5MBnULiBrZU2z5_TN" name="Page-1">
    <mxGraphModel dx="1221" dy="616" grid="1" gridSize="10" guides="1" tooltips="1" connect="1" arrows="1" fold="1" page="1" pageScale="1" pageWidth="827" pageHeight="1169" math="0" shadow="0">
      <root>
        <mxCell id="0" />
        <mxCell id="1" parent="0" />
        <mxCell id="gtj9oNjg9Hfpf6i6Bz86-1" style="edgeStyle=none;rounded=0;orthogonalLoop=1;jettySize=auto;html=1;exitX=0.5;exitY=1;exitDx=0;exitDy=0;entryX=0.5;entryY=0;entryDx=0;entryDy=0;endArrow=none;endFill=0;startArrow=block;startFill=1;" parent="1" source="gtj9oNjg9Hfpf6i6Bz86-3" target="gtj9oNjg9Hfpf6i6Bz86-18" edge="1">
          <mxGeometry relative="1" as="geometry" />
        </mxCell>
        <mxCell id="gtj9oNjg9Hfpf6i6Bz86-2" style="edgeStyle=none;rounded=0;orthogonalLoop=1;jettySize=auto;html=1;exitX=1;exitY=0.5;exitDx=0;exitDy=0;entryX=0;entryY=0.5;entryDx=0;entryDy=0;endArrow=none;endFill=0;" parent="1" source="gtj9oNjg9Hfpf6i6Bz86-3" target="gtj9oNjg9Hfpf6i6Bz86-96" edge="1">
          <mxGeometry relative="1" as="geometry" />
        </mxCell>
        <mxCell id="gtj9oNjg9Hfpf6i6Bz86-3" value="bussiness" style="rounded=0;whiteSpace=wrap;html=1;" parent="1" vertex="1">
          <mxGeometry x="220" y="405" width="120" height="60" as="geometry" />
        </mxCell>
        <mxCell id="gtj9oNjg9Hfpf6i6Bz86-4" value="Rate" style="rounded=0;whiteSpace=wrap;html=1;" parent="1" vertex="1">
          <mxGeometry x="970" y="480" width="120" height="60" as="geometry" />
        </mxCell>
        <mxCell id="gtj9oNjg9Hfpf6i6Bz86-5" style="edgeStyle=none;rounded=0;orthogonalLoop=1;jettySize=auto;html=1;exitX=1;exitY=0;exitDx=0;exitDy=0;entryX=0;entryY=1;entryDx=0;entryDy=0;endArrow=none;endFill=0;" parent="1" source="gtj9oNjg9Hfpf6i6Bz86-6" target="gtj9oNjg9Hfpf6i6Bz86-82" edge="1">
          <mxGeometry relative="1" as="geometry" />
        </mxCell>
        <mxCell id="gtj9oNjg9Hfpf6i6Bz86-6" value="Food" style="rounded=0;whiteSpace=wrap;html=1;" parent="1" vertex="1">
          <mxGeometry x="220" y="770" width="120" height="60" as="geometry" />
        </mxCell>
        <mxCell id="gtj9oNjg9Hfpf6i6Bz86-7" style="edgeStyle=none;rounded=0;orthogonalLoop=1;jettySize=auto;html=1;exitX=1;exitY=0.5;exitDx=0;exitDy=0;entryX=0;entryY=0.5;entryDx=0;entryDy=0;endArrow=none;endFill=0;startArrow=block;startFill=1;" parent="1" source="gtj9oNjg9Hfpf6i6Bz86-8" target="gtj9oNjg9Hfpf6i6Bz86-14" edge="1">
          <mxGeometry relative="1" as="geometry" />
        </mxCell>
        <mxCell id="gtj9oNjg9Hfpf6i6Bz86-8" value="payment" style="rounded=0;whiteSpace=wrap;html=1;" parent="1" vertex="1">
          <mxGeometry x="587.75" y="800" width="120" height="60" as="geometry" />
        </mxCell>
        <mxCell id="gtj9oNjg9Hfpf6i6Bz86-9" style="edgeStyle=none;rounded=0;orthogonalLoop=1;jettySize=auto;html=1;exitX=0;exitY=0.5;exitDx=0;exitDy=0;entryX=0.75;entryY=0;entryDx=0;entryDy=0;endArrow=none;endFill=0;" parent="1" source="gtj9oNjg9Hfpf6i6Bz86-10" target="gtj9oNjg9Hfpf6i6Bz86-3" edge="1">
          <mxGeometry relative="1" as="geometry" />
        </mxCell>
        <mxCell id="gtj9oNjg9Hfpf6i6Bz86-10" value="business_id" style="ellipse;whiteSpace=wrap;html=1;fontStyle=4" parent="1" vertex="1">
          <mxGeometry x="350" y="320" width="90" height="30" as="geometry" />
        </mxCell>
        <mxCell id="gtj9oNjg9Hfpf6i6Bz86-11" style="edgeStyle=none;rounded=0;orthogonalLoop=1;jettySize=auto;html=1;exitX=1;exitY=0.5;exitDx=0;exitDy=0;entryX=0;entryY=0.5;entryDx=0;entryDy=0;endArrow=block;endFill=1;" parent="1" source="gtj9oNjg9Hfpf6i6Bz86-12" target="gtj9oNjg9Hfpf6i6Bz86-8" edge="1">
          <mxGeometry relative="1" as="geometry" />
        </mxCell>
        <mxCell id="gtj9oNjg9Hfpf6i6Bz86-12" value="pay" style="rhombus;whiteSpace=wrap;html=1;shadow=0;sketch=0;" parent="1" vertex="1">
          <mxGeometry x="374.5" y="805" width="110" height="50" as="geometry" />
        </mxCell>
        <mxCell id="gtj9oNjg9Hfpf6i6Bz86-13" style="edgeStyle=none;rounded=0;orthogonalLoop=1;jettySize=auto;html=1;exitX=0.5;exitY=1;exitDx=0;exitDy=0;entryX=0.5;entryY=0;entryDx=0;entryDy=0;endArrow=block;endFill=1;" parent="1" source="gtj9oNjg9Hfpf6i6Bz86-14" target="gtj9oNjg9Hfpf6i6Bz86-73" edge="1">
          <mxGeometry relative="1" as="geometry" />
        </mxCell>
        <mxCell id="gtj9oNjg9Hfpf6i6Bz86-14" value="receive" style="rhombus;whiteSpace=wrap;html=1;shadow=0;sketch=0;" parent="1" vertex="1">
          <mxGeometry x="845.5" y="805" width="110" height="50" as="geometry" />
        </mxCell>
        <mxCell id="gtj9oNjg9Hfpf6i6Bz86-15" style="edgeStyle=none;rounded=0;orthogonalLoop=1;jettySize=auto;html=1;exitX=0.5;exitY=1;exitDx=0;exitDy=0;entryX=0.5;entryY=0;entryDx=0;entryDy=0;endArrow=none;endFill=0;" parent="1" source="gtj9oNjg9Hfpf6i6Bz86-16" target="gtj9oNjg9Hfpf6i6Bz86-8" edge="1">
          <mxGeometry relative="1" as="geometry" />
        </mxCell>
        <mxCell id="gtj9oNjg9Hfpf6i6Bz86-16" value="belong to" style="rhombus;whiteSpace=wrap;html=1;shadow=0;sketch=0;" parent="1" vertex="1">
          <mxGeometry x="592.75" y="720" width="110" height="50" as="geometry" />
        </mxCell>
        <mxCell id="gtj9oNjg9Hfpf6i6Bz86-17" style="edgeStyle=none;rounded=0;orthogonalLoop=1;jettySize=auto;html=1;exitX=0.5;exitY=1;exitDx=0;exitDy=0;entryX=0.5;entryY=0;entryDx=0;entryDy=0;endArrow=none;endFill=0;" parent="1" source="gtj9oNjg9Hfpf6i6Bz86-18" target="gtj9oNjg9Hfpf6i6Bz86-6" edge="1">
          <mxGeometry relative="1" as="geometry" />
        </mxCell>
        <mxCell id="gtj9oNjg9Hfpf6i6Bz86-18" value="belong to" style="rhombus;whiteSpace=wrap;html=1;shadow=0;sketch=0;" parent="1" vertex="1">
          <mxGeometry x="225" y="615" width="110" height="50" as="geometry" />
        </mxCell>
        <mxCell id="gtj9oNjg9Hfpf6i6Bz86-19" value="" style="group" parent="1" vertex="1" connectable="0">
          <mxGeometry x="642" y="150" width="370" height="170" as="geometry" />
        </mxCell>
        <mxCell id="gtj9oNjg9Hfpf6i6Bz86-20" value="customer" style="rounded=0;whiteSpace=wrap;html=1;" parent="gtj9oNjg9Hfpf6i6Bz86-19" vertex="1">
          <mxGeometry x="120" y="50" width="120" height="60" as="geometry" />
        </mxCell>
        <mxCell id="gtj9oNjg9Hfpf6i6Bz86-21" style="edgeStyle=none;rounded=0;orthogonalLoop=1;jettySize=auto;html=1;exitX=0.5;exitY=1;exitDx=0;exitDy=0;entryX=0.75;entryY=0;entryDx=0;entryDy=0;endArrow=none;endFill=0;" parent="gtj9oNjg9Hfpf6i6Bz86-19" source="gtj9oNjg9Hfpf6i6Bz86-22" target="gtj9oNjg9Hfpf6i6Bz86-20" edge="1">
          <mxGeometry relative="1" as="geometry" />
        </mxCell>
        <mxCell id="gtj9oNjg9Hfpf6i6Bz86-22" value="&lt;u&gt;customer_id&lt;/u&gt;" style="ellipse;whiteSpace=wrap;html=1;" parent="gtj9oNjg9Hfpf6i6Bz86-19" vertex="1">
          <mxGeometry x="205" width="90" height="30" as="geometry" />
        </mxCell>
        <mxCell id="gtj9oNjg9Hfpf6i6Bz86-23" style="edgeStyle=none;rounded=0;orthogonalLoop=1;jettySize=auto;html=1;exitX=0.5;exitY=1;exitDx=0;exitDy=0;entryX=0.25;entryY=0;entryDx=0;entryDy=0;endArrow=none;endFill=0;" parent="gtj9oNjg9Hfpf6i6Bz86-19" source="gtj9oNjg9Hfpf6i6Bz86-24" target="gtj9oNjg9Hfpf6i6Bz86-20" edge="1">
          <mxGeometry relative="1" as="geometry" />
        </mxCell>
        <mxCell id="gtj9oNjg9Hfpf6i6Bz86-24" value="password" style="ellipse;whiteSpace=wrap;html=1;" parent="gtj9oNjg9Hfpf6i6Bz86-19" vertex="1">
          <mxGeometry x="105" width="90" height="30" as="geometry" />
        </mxCell>
        <mxCell id="gtj9oNjg9Hfpf6i6Bz86-25" value="account_&lt;span style=&quot;color: rgba(0 , 0 , 0 , 0) ; font-family: monospace ; font-size: 0px&quot;&gt;%3CmxGraphModel%3E%3Croot%3E%3CmxCell%20id%3D%220%22%2F%3E%3CmxCell%20id%3D%221%22%20parent%3D%220%22%2F%3E%3CmxCell%20id%3D%222%22%20value%3D%22customer_id%22%20style%3D%22ellipse%3BwhiteSpace%3Dwrap%3Bhtml%3D1%3B%22%20vertex%3D%221%22%20parent%3D%221%22%3E%3CmxGeometry%20x%3D%22100%22%20y%3D%2220%22%20width%3D%2290%22%20height%3D%2230%22%20as%3D%22geometry%22%2F%3E%3C%2FmxCell%3E%3C%2Froot%3E%3C%2FmxGraphModel%3E&lt;/span&gt;id&lt;span style=&quot;color: rgba(0 , 0 , 0 , 0) ; font-family: monospace ; font-size: 0px&quot;&gt;%3CmxGraphModel%3E%3Croot%3E%3CmxCell%20id%3D%220%22%2F%3E%3CmxCell%20id%3D%221%22%20parent%3D%220%22%2F%3E%3CmxCell%20id%3D%222%22%20value%3D%22customer_id%22%20style%3D%22ellipse%3BwhiteSpace%3Dwrap%3Bhtml%3D1%3B%22%20vertex%3D%221%22%20parent%3D%221%22%3E%3CmxGeometry%20x%3D%22100%22%20y%3D%2220%22%20width%3D%2290%22%20height%3D%2230%22%20as%3D%22geometry%22%2F%3E%3C%2FmxCell%3E%3C%2Froot%3E%3C%2FmxGraphModel%3E&lt;/span&gt;" style="ellipse;whiteSpace=wrap;html=1;" parent="gtj9oNjg9Hfpf6i6Bz86-19" vertex="1">
          <mxGeometry x="-2" width="92" height="30" as="geometry" />
        </mxCell>
        <mxCell id="gtj9oNjg9Hfpf6i6Bz86-26" style="edgeStyle=none;rounded=0;orthogonalLoop=1;jettySize=auto;html=1;exitX=1;exitY=0.5;exitDx=0;exitDy=0;entryX=0.25;entryY=1;entryDx=0;entryDy=0;endArrow=none;endFill=0;" parent="gtj9oNjg9Hfpf6i6Bz86-19" source="gtj9oNjg9Hfpf6i6Bz86-27" target="gtj9oNjg9Hfpf6i6Bz86-20" edge="1">
          <mxGeometry relative="1" as="geometry" />
        </mxCell>
        <mxCell id="gtj9oNjg9Hfpf6i6Bz86-27" value="address" style="ellipse;whiteSpace=wrap;html=1;" parent="gtj9oNjg9Hfpf6i6Bz86-19" vertex="1">
          <mxGeometry x="-2" y="120" width="90" height="30" as="geometry" />
        </mxCell>
        <mxCell id="gtj9oNjg9Hfpf6i6Bz86-28" style="edgeStyle=orthogonalEdgeStyle;rounded=0;orthogonalLoop=1;jettySize=auto;html=1;exitX=1;exitY=0.5;exitDx=0;exitDy=0;entryX=0;entryY=1;entryDx=0;entryDy=0;strokeColor=none;" parent="gtj9oNjg9Hfpf6i6Bz86-19" source="gtj9oNjg9Hfpf6i6Bz86-30" target="gtj9oNjg9Hfpf6i6Bz86-20" edge="1">
          <mxGeometry relative="1" as="geometry" />
        </mxCell>
        <mxCell id="gtj9oNjg9Hfpf6i6Bz86-29" style="edgeStyle=none;rounded=0;orthogonalLoop=1;jettySize=auto;html=1;exitX=1;exitY=0.5;exitDx=0;exitDy=0;entryX=0;entryY=0.5;entryDx=0;entryDy=0;endArrow=none;endFill=0;" parent="gtj9oNjg9Hfpf6i6Bz86-19" source="gtj9oNjg9Hfpf6i6Bz86-30" target="gtj9oNjg9Hfpf6i6Bz86-20" edge="1">
          <mxGeometry relative="1" as="geometry" />
        </mxCell>
        <mxCell id="gtj9oNjg9Hfpf6i6Bz86-30" value="phone_number" style="ellipse;whiteSpace=wrap;html=1;" parent="gtj9oNjg9Hfpf6i6Bz86-19" vertex="1">
          <mxGeometry x="-1" y="65" width="90" height="30" as="geometry" />
        </mxCell>
        <mxCell id="gtj9oNjg9Hfpf6i6Bz86-31" style="edgeStyle=none;rounded=0;orthogonalLoop=1;jettySize=auto;html=1;exitX=0;exitY=0.5;exitDx=0;exitDy=0;entryX=0.75;entryY=1;entryDx=0;entryDy=0;endArrow=none;endFill=0;" parent="gtj9oNjg9Hfpf6i6Bz86-19" source="gtj9oNjg9Hfpf6i6Bz86-32" target="gtj9oNjg9Hfpf6i6Bz86-20" edge="1">
          <mxGeometry relative="1" as="geometry" />
        </mxCell>
        <mxCell id="gtj9oNjg9Hfpf6i6Bz86-32" value="name" style="ellipse;whiteSpace=wrap;html=1;" parent="gtj9oNjg9Hfpf6i6Bz86-19" vertex="1">
          <mxGeometry x="280" y="120" width="90" height="30" as="geometry" />
        </mxCell>
        <mxCell id="gtj9oNjg9Hfpf6i6Bz86-33" style="edgeStyle=none;rounded=0;orthogonalLoop=1;jettySize=auto;html=1;exitX=0;exitY=0.5;exitDx=0;exitDy=0;entryX=1;entryY=0.75;entryDx=0;entryDy=0;endArrow=none;endFill=0;" parent="gtj9oNjg9Hfpf6i6Bz86-19" source="gtj9oNjg9Hfpf6i6Bz86-34" target="gtj9oNjg9Hfpf6i6Bz86-20" edge="1">
          <mxGeometry relative="1" as="geometry" />
        </mxCell>
        <mxCell id="gtj9oNjg9Hfpf6i6Bz86-34" value="gender" style="ellipse;whiteSpace=wrap;html=1;shadow=0;sketch=0;" parent="gtj9oNjg9Hfpf6i6Bz86-19" vertex="1">
          <mxGeometry x="280" y="60" width="90" height="30" as="geometry" />
        </mxCell>
        <mxCell id="gtj9oNjg9Hfpf6i6Bz86-35" style="edgeStyle=none;rounded=0;orthogonalLoop=1;jettySize=auto;html=1;exitX=0;exitY=0.5;exitDx=0;exitDy=0;entryX=1;entryY=0.25;entryDx=0;entryDy=0;endArrow=none;endFill=0;" parent="gtj9oNjg9Hfpf6i6Bz86-19" source="gtj9oNjg9Hfpf6i6Bz86-36" target="gtj9oNjg9Hfpf6i6Bz86-20" edge="1">
          <mxGeometry relative="1" as="geometry" />
        </mxCell>
        <mxCell id="gtj9oNjg9Hfpf6i6Bz86-36" value="birthday" style="ellipse;whiteSpace=wrap;html=1;shadow=0;sketch=0;" parent="gtj9oNjg9Hfpf6i6Bz86-19" vertex="1">
          <mxGeometry x="295" y="20" width="90" height="30" as="geometry" />
        </mxCell>
        <mxCell id="gtj9oNjg9Hfpf6i6Bz86-37" style="rounded=0;orthogonalLoop=1;jettySize=auto;html=1;exitX=1;exitY=0.5;exitDx=0;exitDy=0;endArrow=none;endFill=0;entryX=0;entryY=0.25;entryDx=0;entryDy=0;" parent="gtj9oNjg9Hfpf6i6Bz86-19" source="gtj9oNjg9Hfpf6i6Bz86-25" target="gtj9oNjg9Hfpf6i6Bz86-20" edge="1">
          <mxGeometry relative="1" as="geometry">
            <mxPoint x="200" y="70" as="targetPoint" />
          </mxGeometry>
        </mxCell>
        <mxCell id="gtj9oNjg9Hfpf6i6Bz86-38" style="edgeStyle=none;rounded=0;orthogonalLoop=1;jettySize=auto;html=1;exitX=1;exitY=0.75;exitDx=0;exitDy=0;entryX=1;entryY=0.5;entryDx=0;entryDy=0;startArrow=none;startFill=0;endArrow=none;endFill=0;" parent="gtj9oNjg9Hfpf6i6Bz86-19" source="gtj9oNjg9Hfpf6i6Bz86-20" target="gtj9oNjg9Hfpf6i6Bz86-20" edge="1">
          <mxGeometry relative="1" as="geometry" />
        </mxCell>
        <mxCell id="gtj9oNjg9Hfpf6i6Bz86-39" style="edgeStyle=none;rounded=0;orthogonalLoop=1;jettySize=auto;html=1;exitX=1;exitY=0.75;exitDx=0;exitDy=0;entryX=1;entryY=0.5;entryDx=0;entryDy=0;startArrow=none;startFill=0;endArrow=none;endFill=0;" parent="gtj9oNjg9Hfpf6i6Bz86-19" source="gtj9oNjg9Hfpf6i6Bz86-20" target="gtj9oNjg9Hfpf6i6Bz86-20" edge="1">
          <mxGeometry relative="1" as="geometry" />
        </mxCell>
        <mxCell id="gtj9oNjg9Hfpf6i6Bz86-40" value="" style="group" parent="1" vertex="1" connectable="0">
          <mxGeometry x="120" y="40" width="340" height="170" as="geometry" />
        </mxCell>
        <mxCell id="gtj9oNjg9Hfpf6i6Bz86-41" value="seller" style="rounded=0;whiteSpace=wrap;html=1;" parent="gtj9oNjg9Hfpf6i6Bz86-40" vertex="1">
          <mxGeometry x="100" y="60" width="120" height="60" as="geometry" />
        </mxCell>
        <mxCell id="gtj9oNjg9Hfpf6i6Bz86-42" value="seller_id" style="ellipse;whiteSpace=wrap;html=1;fontStyle=4" parent="gtj9oNjg9Hfpf6i6Bz86-40" vertex="1">
          <mxGeometry x="10" y="20" width="90" height="30" as="geometry" />
        </mxCell>
        <mxCell id="gtj9oNjg9Hfpf6i6Bz86-43" value="password" style="ellipse;whiteSpace=wrap;html=1;" parent="gtj9oNjg9Hfpf6i6Bz86-40" vertex="1">
          <mxGeometry x="100" width="90" height="30" as="geometry" />
        </mxCell>
        <mxCell id="gtj9oNjg9Hfpf6i6Bz86-44" value="account_&lt;span style=&quot;color: rgba(0 , 0 , 0 , 0) ; font-family: monospace ; font-size: 0px&quot;&gt;%3CmxGraphModel%3E%3Croot%3E%3CmxCell%20id%3D%220%22%2F%3E%3CmxCell%20id%3D%221%22%20parent%3D%220%22%2F%3E%3CmxCell%20id%3D%222%22%20value%3D%22customer_id%22%20style%3D%22ellipse%3BwhiteSpace%3Dwrap%3Bhtml%3D1%3B%22%20vertex%3D%221%22%20parent%3D%221%22%3E%3CmxGeometry%20x%3D%22100%22%20y%3D%2220%22%20width%3D%2290%22%20height%3D%2230%22%20as%3D%22geometry%22%2F%3E%3C%2FmxCell%3E%3C%2Froot%3E%3C%2FmxGraphModel%3E&lt;/span&gt;id&lt;span style=&quot;color: rgba(0 , 0 , 0 , 0) ; font-family: monospace ; font-size: 0px&quot;&gt;%3CmxGraphModel%3E%3Croot%3E%3CmxCell%20id%3D%220%22%2F%3E%3CmxCell%20id%3D%221%22%20parent%3D%220%22%2F%3E%3CmxCell%20id%3D%222%22%20value%3D%22customer_id%22%20style%3D%22ellipse%3BwhiteSpace%3Dwrap%3Bhtml%3D1%3B%22%20vertex%3D%221%22%20parent%3D%221%22%3E%3CmxGeometry%20x%3D%22100%22%20y%3D%2220%22%20width%3D%2290%22%20height%3D%2230%22%20as%3D%22geometry%22%2F%3E%3C%2FmxCell%3E%3C%2Froot%3E%3C%2FmxGraphModel%3E&lt;/span&gt;" style="ellipse;whiteSpace=wrap;html=1;" parent="gtj9oNjg9Hfpf6i6Bz86-40" vertex="1">
          <mxGeometry x="205" y="10" width="92" height="30" as="geometry" />
        </mxCell>
        <mxCell id="gtj9oNjg9Hfpf6i6Bz86-45" value="phone_number" style="ellipse;whiteSpace=wrap;html=1;" parent="gtj9oNjg9Hfpf6i6Bz86-40" vertex="1">
          <mxGeometry x="250" y="50" width="90" height="30" as="geometry" />
        </mxCell>
        <mxCell id="gtj9oNjg9Hfpf6i6Bz86-46" value="address" style="ellipse;whiteSpace=wrap;html=1;" parent="gtj9oNjg9Hfpf6i6Bz86-40" vertex="1">
          <mxGeometry x="250" y="100" width="90" height="30" as="geometry" />
        </mxCell>
        <mxCell id="gtj9oNjg9Hfpf6i6Bz86-47" value="name" style="ellipse;whiteSpace=wrap;html=1;" parent="gtj9oNjg9Hfpf6i6Bz86-40" vertex="1">
          <mxGeometry x="180" y="140" width="90" height="30" as="geometry" />
        </mxCell>
        <mxCell id="gtj9oNjg9Hfpf6i6Bz86-48" value="birthday" style="ellipse;whiteSpace=wrap;html=1;shadow=0;sketch=0;dashed=1;" parent="gtj9oNjg9Hfpf6i6Bz86-40" vertex="1">
          <mxGeometry y="90" width="90" height="30" as="geometry" />
        </mxCell>
        <mxCell id="gtj9oNjg9Hfpf6i6Bz86-49" value="gender" style="ellipse;whiteSpace=wrap;html=1;shadow=0;sketch=0;dashed=1;" parent="gtj9oNjg9Hfpf6i6Bz86-40" vertex="1">
          <mxGeometry x="70" y="140" width="90" height="30" as="geometry" />
        </mxCell>
        <mxCell id="gtj9oNjg9Hfpf6i6Bz86-50" value="" style="endArrow=none;html=1;rounded=0;" parent="gtj9oNjg9Hfpf6i6Bz86-40" source="gtj9oNjg9Hfpf6i6Bz86-41" target="gtj9oNjg9Hfpf6i6Bz86-47" edge="1">
          <mxGeometry relative="1" as="geometry">
            <mxPoint x="350" y="360" as="sourcePoint" />
            <mxPoint x="510" y="360" as="targetPoint" />
          </mxGeometry>
        </mxCell>
        <mxCell id="gtj9oNjg9Hfpf6i6Bz86-51" value="" style="endArrow=none;html=1;rounded=0;exitX=0.75;exitY=0;exitDx=0;exitDy=0;entryX=0;entryY=1;entryDx=0;entryDy=0;" parent="gtj9oNjg9Hfpf6i6Bz86-40" source="gtj9oNjg9Hfpf6i6Bz86-41" target="gtj9oNjg9Hfpf6i6Bz86-44" edge="1">
          <mxGeometry relative="1" as="geometry">
            <mxPoint x="350" y="170" as="sourcePoint" />
            <mxPoint x="510" y="170" as="targetPoint" />
          </mxGeometry>
        </mxCell>
        <mxCell id="gtj9oNjg9Hfpf6i6Bz86-52" value="" style="endArrow=none;html=1;rounded=0;entryX=0.5;entryY=1;entryDx=0;entryDy=0;" parent="gtj9oNjg9Hfpf6i6Bz86-40" target="gtj9oNjg9Hfpf6i6Bz86-43" edge="1">
          <mxGeometry relative="1" as="geometry">
            <mxPoint x="150" y="60" as="sourcePoint" />
            <mxPoint x="310" y="60" as="targetPoint" />
          </mxGeometry>
        </mxCell>
        <mxCell id="gtj9oNjg9Hfpf6i6Bz86-53" value="" style="endArrow=none;html=1;rounded=0;exitX=1;exitY=0;exitDx=0;exitDy=0;entryX=0;entryY=0.5;entryDx=0;entryDy=0;" parent="gtj9oNjg9Hfpf6i6Bz86-40" source="gtj9oNjg9Hfpf6i6Bz86-48" target="gtj9oNjg9Hfpf6i6Bz86-41" edge="1">
          <mxGeometry relative="1" as="geometry">
            <mxPoint x="350" y="170" as="sourcePoint" />
            <mxPoint x="510" y="170" as="targetPoint" />
          </mxGeometry>
        </mxCell>
        <mxCell id="gtj9oNjg9Hfpf6i6Bz86-54" value="" style="endArrow=none;html=1;rounded=0;exitX=0.5;exitY=0;exitDx=0;exitDy=0;entryX=0.387;entryY=0.987;entryDx=0;entryDy=0;entryPerimeter=0;" parent="gtj9oNjg9Hfpf6i6Bz86-40" source="gtj9oNjg9Hfpf6i6Bz86-49" target="gtj9oNjg9Hfpf6i6Bz86-41" edge="1">
          <mxGeometry relative="1" as="geometry">
            <mxPoint x="350" y="170" as="sourcePoint" />
            <mxPoint x="84.4000244140625" y="82" as="targetPoint" />
          </mxGeometry>
        </mxCell>
        <mxCell id="gtj9oNjg9Hfpf6i6Bz86-55" value="" style="endArrow=none;html=1;rounded=0;entryX=0.68;entryY=1.04;entryDx=0;entryDy=0;entryPerimeter=0;exitX=0;exitY=0;exitDx=0;exitDy=0;" parent="gtj9oNjg9Hfpf6i6Bz86-40" source="gtj9oNjg9Hfpf6i6Bz86-41" target="gtj9oNjg9Hfpf6i6Bz86-42" edge="1">
          <mxGeometry relative="1" as="geometry">
            <mxPoint x="60" y="240" as="sourcePoint" />
            <mxPoint x="470" y="350" as="targetPoint" />
          </mxGeometry>
        </mxCell>
        <mxCell id="gtj9oNjg9Hfpf6i6Bz86-56" value="" style="endArrow=none;html=1;rounded=0;entryX=0;entryY=0.5;entryDx=0;entryDy=0;exitX=1;exitY=0;exitDx=0;exitDy=0;" parent="gtj9oNjg9Hfpf6i6Bz86-40" source="gtj9oNjg9Hfpf6i6Bz86-41" target="gtj9oNjg9Hfpf6i6Bz86-45" edge="1">
          <mxGeometry relative="1" as="geometry">
            <mxPoint x="180" y="250" as="sourcePoint" />
            <mxPoint x="470" y="350" as="targetPoint" />
          </mxGeometry>
        </mxCell>
        <mxCell id="gtj9oNjg9Hfpf6i6Bz86-57" value="" style="endArrow=none;html=1;rounded=0;exitX=1;exitY=0.75;exitDx=0;exitDy=0;entryX=0;entryY=0.5;entryDx=0;entryDy=0;" parent="gtj9oNjg9Hfpf6i6Bz86-40" source="gtj9oNjg9Hfpf6i6Bz86-41" target="gtj9oNjg9Hfpf6i6Bz86-46" edge="1">
          <mxGeometry relative="1" as="geometry">
            <mxPoint x="310" y="350" as="sourcePoint" />
            <mxPoint x="210" y="290" as="targetPoint" />
          </mxGeometry>
        </mxCell>
        <mxCell id="gtj9oNjg9Hfpf6i6Bz86-58" value="" style="group;fontStyle=4" parent="1" vertex="1" connectable="0">
          <mxGeometry x="263" y="930" width="342" height="60" as="geometry" />
        </mxCell>
        <mxCell id="gtj9oNjg9Hfpf6i6Bz86-59" value="c_account" style="rounded=0;whiteSpace=wrap;html=1;" parent="gtj9oNjg9Hfpf6i6Bz86-58" vertex="1">
          <mxGeometry x="105.5" y="-20" width="120" height="60" as="geometry" />
        </mxCell>
        <mxCell id="gtj9oNjg9Hfpf6i6Bz86-60" style="edgeStyle=none;rounded=0;orthogonalLoop=1;jettySize=auto;html=1;exitX=1;exitY=0.5;exitDx=0;exitDy=0;entryX=0;entryY=0.5;entryDx=0;entryDy=0;endArrow=none;endFill=0;" parent="gtj9oNjg9Hfpf6i6Bz86-58" source="gtj9oNjg9Hfpf6i6Bz86-61" target="gtj9oNjg9Hfpf6i6Bz86-59" edge="1">
          <mxGeometry relative="1" as="geometry">
            <mxPoint x="87.5" y="10" as="sourcePoint" />
          </mxGeometry>
        </mxCell>
        <mxCell id="gtj9oNjg9Hfpf6i6Bz86-61" value="c_account_id" style="ellipse;whiteSpace=wrap;html=1;fontStyle=4" parent="gtj9oNjg9Hfpf6i6Bz86-58" vertex="1">
          <mxGeometry x="-13" y="-5" width="92" height="30" as="geometry" />
        </mxCell>
        <mxCell id="gtj9oNjg9Hfpf6i6Bz86-62" style="edgeStyle=none;rounded=0;orthogonalLoop=1;jettySize=auto;html=1;exitX=0;exitY=0.5;exitDx=0;exitDy=0;entryX=1;entryY=0.5;entryDx=0;entryDy=0;endArrow=none;endFill=0;" parent="gtj9oNjg9Hfpf6i6Bz86-58" source="gtj9oNjg9Hfpf6i6Bz86-63" target="gtj9oNjg9Hfpf6i6Bz86-59" edge="1">
          <mxGeometry relative="1" as="geometry" />
        </mxCell>
        <mxCell id="gtj9oNjg9Hfpf6i6Bz86-63" value="balance" style="ellipse;whiteSpace=wrap;html=1;" parent="gtj9oNjg9Hfpf6i6Bz86-58" vertex="1">
          <mxGeometry x="245.5" y="-5" width="92" height="30" as="geometry" />
        </mxCell>
        <mxCell id="gtj9oNjg9Hfpf6i6Bz86-64" style="edgeStyle=none;rounded=0;orthogonalLoop=1;jettySize=auto;html=1;exitX=1;exitY=0.5;exitDx=0;exitDy=0;entryX=0.25;entryY=0;entryDx=0;entryDy=0;endArrow=none;endFill=0;" parent="1" source="gtj9oNjg9Hfpf6i6Bz86-65" target="gtj9oNjg9Hfpf6i6Bz86-3" edge="1">
          <mxGeometry relative="1" as="geometry" />
        </mxCell>
        <mxCell id="gtj9oNjg9Hfpf6i6Bz86-65" value="business_name" style="ellipse;whiteSpace=wrap;html=1;" parent="1" vertex="1">
          <mxGeometry x="94.5" y="350" width="99" height="30" as="geometry" />
        </mxCell>
        <mxCell id="gtj9oNjg9Hfpf6i6Bz86-66" style="edgeStyle=none;rounded=0;orthogonalLoop=1;jettySize=auto;html=1;entryX=1;entryY=0;entryDx=0;entryDy=0;endArrow=none;endFill=0;exitX=0.5;exitY=1;exitDx=0;exitDy=0;" parent="1" source="gtj9oNjg9Hfpf6i6Bz86-67" target="gtj9oNjg9Hfpf6i6Bz86-4" edge="1">
          <mxGeometry relative="1" as="geometry">
            <mxPoint x="1086" y="465" as="sourcePoint" />
          </mxGeometry>
        </mxCell>
        <mxCell id="gtj9oNjg9Hfpf6i6Bz86-67" value="rate_id" style="ellipse;whiteSpace=wrap;html=1;fontStyle=4" parent="1" vertex="1">
          <mxGeometry x="1031.5" y="405" width="90" height="30" as="geometry" />
        </mxCell>
        <mxCell id="gtj9oNjg9Hfpf6i6Bz86-68" style="edgeStyle=none;rounded=0;orthogonalLoop=1;jettySize=auto;html=1;exitX=1;exitY=0.5;exitDx=0;exitDy=0;entryX=0;entryY=0.25;entryDx=0;entryDy=0;endArrow=none;endFill=0;" parent="1" source="gtj9oNjg9Hfpf6i6Bz86-69" target="gtj9oNjg9Hfpf6i6Bz86-6" edge="1">
          <mxGeometry relative="1" as="geometry" />
        </mxCell>
        <mxCell id="gtj9oNjg9Hfpf6i6Bz86-69" value="food_id" style="ellipse;whiteSpace=wrap;html=1;fontStyle=4" parent="1" vertex="1">
          <mxGeometry x="110" y="760" width="90" height="30" as="geometry" />
        </mxCell>
        <mxCell id="gtj9oNjg9Hfpf6i6Bz86-70" value="payment_id" style="ellipse;whiteSpace=wrap;html=1;fontStyle=4" parent="1" vertex="1">
          <mxGeometry x="589.5" y="880" width="90" height="30" as="geometry" />
        </mxCell>
        <mxCell id="gtj9oNjg9Hfpf6i6Bz86-71" value="c_account_id" style="ellipse;whiteSpace=wrap;html=1;" parent="1" vertex="1">
          <mxGeometry x="484.5" y="880" width="92" height="30" as="geometry" />
        </mxCell>
        <mxCell id="gtj9oNjg9Hfpf6i6Bz86-72" value="" style="group" parent="1" vertex="1" connectable="0">
          <mxGeometry x="733.5" y="940" width="343" height="60" as="geometry" />
        </mxCell>
        <mxCell id="gtj9oNjg9Hfpf6i6Bz86-73" value="s_account" style="rounded=0;whiteSpace=wrap;html=1;" parent="gtj9oNjg9Hfpf6i6Bz86-72" vertex="1">
          <mxGeometry x="106.5" y="-20" width="120" height="60" as="geometry" />
        </mxCell>
        <mxCell id="gtj9oNjg9Hfpf6i6Bz86-74" style="edgeStyle=none;rounded=0;orthogonalLoop=1;jettySize=auto;html=1;exitX=1;exitY=0.5;exitDx=0;exitDy=0;entryX=0;entryY=0.5;entryDx=0;entryDy=0;endArrow=none;endFill=0;" parent="gtj9oNjg9Hfpf6i6Bz86-72" source="gtj9oNjg9Hfpf6i6Bz86-75" target="gtj9oNjg9Hfpf6i6Bz86-73" edge="1">
          <mxGeometry relative="1" as="geometry" />
        </mxCell>
        <mxCell id="gtj9oNjg9Hfpf6i6Bz86-75" value="s_account_id" style="ellipse;whiteSpace=wrap;html=1;fontStyle=4" parent="gtj9oNjg9Hfpf6i6Bz86-72" vertex="1">
          <mxGeometry x="-4.5" y="-5" width="92" height="30" as="geometry" />
        </mxCell>
        <mxCell id="gtj9oNjg9Hfpf6i6Bz86-76" style="edgeStyle=none;rounded=0;orthogonalLoop=1;jettySize=auto;html=1;exitX=0;exitY=0.5;exitDx=0;exitDy=0;entryX=1;entryY=0.5;entryDx=0;entryDy=0;endArrow=none;endFill=0;" parent="gtj9oNjg9Hfpf6i6Bz86-72" source="gtj9oNjg9Hfpf6i6Bz86-77" target="gtj9oNjg9Hfpf6i6Bz86-73" edge="1">
          <mxGeometry relative="1" as="geometry">
            <mxPoint x="246.5" y="10" as="sourcePoint" />
          </mxGeometry>
        </mxCell>
        <mxCell id="gtj9oNjg9Hfpf6i6Bz86-77" value="balance" style="ellipse;whiteSpace=wrap;html=1;" parent="gtj9oNjg9Hfpf6i6Bz86-72" vertex="1">
          <mxGeometry x="251" y="-5" width="92" height="30" as="geometry" />
        </mxCell>
        <mxCell id="gtj9oNjg9Hfpf6i6Bz86-78" value="s_account_id" style="ellipse;whiteSpace=wrap;html=1;" parent="1" vertex="1">
          <mxGeometry x="695.5" y="880" width="92" height="30" as="geometry" />
        </mxCell>
        <mxCell id="gtj9oNjg9Hfpf6i6Bz86-79" style="edgeStyle=none;rounded=0;orthogonalLoop=1;jettySize=auto;html=1;exitX=0.5;exitY=1;exitDx=0;exitDy=0;entryX=0.25;entryY=0;entryDx=0;entryDy=0;endArrow=none;endFill=0;" parent="1" source="gtj9oNjg9Hfpf6i6Bz86-80" target="gtj9oNjg9Hfpf6i6Bz86-6" edge="1">
          <mxGeometry relative="1" as="geometry" />
        </mxCell>
        <mxCell id="gtj9oNjg9Hfpf6i6Bz86-80" value="food_name" style="ellipse;whiteSpace=wrap;html=1;" parent="1" vertex="1">
          <mxGeometry x="150" y="720" width="99" height="30" as="geometry" />
        </mxCell>
        <mxCell id="gtj9oNjg9Hfpf6i6Bz86-82" value="contain" style="rhombus;whiteSpace=wrap;html=1;shadow=0;sketch=0;" parent="1" vertex="1">
          <mxGeometry x="330" y="690" width="110" height="50" as="geometry" />
        </mxCell>
        <mxCell id="gtj9oNjg9Hfpf6i6Bz86-84" value="relate to" style="rhombus;whiteSpace=wrap;html=1;shadow=0;sketch=0;" parent="1" vertex="1">
          <mxGeometry x="870" y="570" width="110" height="50" as="geometry" />
        </mxCell>
        <mxCell id="gtj9oNjg9Hfpf6i6Bz86-85" style="edgeStyle=none;rounded=0;orthogonalLoop=1;jettySize=auto;html=1;exitX=1;exitY=0.5;exitDx=0;exitDy=0;entryX=0;entryY=0.25;entryDx=0;entryDy=0;endArrow=none;endFill=0;" parent="1" source="gtj9oNjg9Hfpf6i6Bz86-86" target="gtj9oNjg9Hfpf6i6Bz86-3" edge="1">
          <mxGeometry relative="1" as="geometry" />
        </mxCell>
        <mxCell id="gtj9oNjg9Hfpf6i6Bz86-86" value="business_type" style="ellipse;whiteSpace=wrap;html=1;" parent="1" vertex="1">
          <mxGeometry x="94.5" y="390" width="99" height="30" as="geometry" />
        </mxCell>
        <mxCell id="gtj9oNjg9Hfpf6i6Bz86-87" value="own" style="rhombus;whiteSpace=wrap;html=1;shadow=0;sketch=0;" parent="1" vertex="1">
          <mxGeometry x="225" y="260" width="110" height="50" as="geometry" />
        </mxCell>
        <mxCell id="gtj9oNjg9Hfpf6i6Bz86-88" style="edgeStyle=none;rounded=0;orthogonalLoop=1;jettySize=auto;html=1;exitX=0.5;exitY=1;exitDx=0;exitDy=0;entryX=0;entryY=0;entryDx=0;entryDy=0;endArrow=none;endFill=0;" parent="1" source="gtj9oNjg9Hfpf6i6Bz86-89" target="gtj9oNjg9Hfpf6i6Bz86-4" edge="1">
          <mxGeometry relative="1" as="geometry">
            <mxPoint x="950" y="460" as="sourcePoint" />
          </mxGeometry>
        </mxCell>
        <mxCell id="gtj9oNjg9Hfpf6i6Bz86-89" value="rating" style="rhombus;whiteSpace=wrap;html=1;shadow=0;sketch=0;" parent="1" vertex="1">
          <mxGeometry x="845.5" y="405" width="110" height="50" as="geometry" />
        </mxCell>
        <mxCell id="gtj9oNjg9Hfpf6i6Bz86-90" style="edgeStyle=none;rounded=0;orthogonalLoop=1;jettySize=auto;html=1;exitX=1;exitY=0.5;exitDx=0;exitDy=0;entryX=0;entryY=0.5;entryDx=0;entryDy=0;endArrow=none;endFill=0;" parent="1" source="gtj9oNjg9Hfpf6i6Bz86-91" target="gtj9oNjg9Hfpf6i6Bz86-6" edge="1">
          <mxGeometry relative="1" as="geometry" />
        </mxCell>
        <mxCell id="gtj9oNjg9Hfpf6i6Bz86-91" value="price" style="ellipse;whiteSpace=wrap;html=1;" parent="1" vertex="1">
          <mxGeometry x="100" y="800" width="99" height="30" as="geometry" />
        </mxCell>
        <mxCell id="gtj9oNjg9Hfpf6i6Bz86-92" style="edgeStyle=none;rounded=0;orthogonalLoop=1;jettySize=auto;html=1;exitX=0.5;exitY=0;exitDx=0;exitDy=0;entryX=0;entryY=1;entryDx=0;entryDy=0;endArrow=none;endFill=0;" parent="1" source="gtj9oNjg9Hfpf6i6Bz86-93" target="gtj9oNjg9Hfpf6i6Bz86-6" edge="1">
          <mxGeometry relative="1" as="geometry" />
        </mxCell>
        <mxCell id="gtj9oNjg9Hfpf6i6Bz86-93" value="sale_count" style="ellipse;whiteSpace=wrap;html=1;" parent="1" vertex="1">
          <mxGeometry x="126" y="850" width="99" height="30" as="geometry" />
        </mxCell>
        <mxCell id="gtj9oNjg9Hfpf6i6Bz86-94" style="edgeStyle=none;rounded=0;orthogonalLoop=1;jettySize=auto;html=1;exitX=0.5;exitY=0;exitDx=0;exitDy=0;entryX=0.5;entryY=1;entryDx=0;entryDy=0;endArrow=block;endFill=1;" parent="1" source="gtj9oNjg9Hfpf6i6Bz86-96" target="gtj9oNjg9Hfpf6i6Bz86-20" edge="1">
          <mxGeometry relative="1" as="geometry" />
        </mxCell>
        <mxCell id="gtj9oNjg9Hfpf6i6Bz86-95" style="edgeStyle=none;rounded=0;orthogonalLoop=1;jettySize=auto;html=1;exitX=0.5;exitY=1;exitDx=0;exitDy=0;entryX=0.75;entryY=0;entryDx=0;entryDy=0;endArrow=none;endFill=0;" parent="1" source="gtj9oNjg9Hfpf6i6Bz86-96" target="gtj9oNjg9Hfpf6i6Bz86-111" edge="1">
          <mxGeometry relative="1" as="geometry" />
        </mxCell>
        <mxCell id="gtj9oNjg9Hfpf6i6Bz86-96" value="ordering" style="rhombus;whiteSpace=wrap;html=1;shadow=0;sketch=0;" parent="1" vertex="1">
          <mxGeometry x="610" y="410" width="110" height="50" as="geometry" />
        </mxCell>
        <mxCell id="gtj9oNjg9Hfpf6i6Bz86-97" style="edgeStyle=none;rounded=0;orthogonalLoop=1;jettySize=auto;html=1;exitX=1;exitY=0.5;exitDx=0;exitDy=0;entryX=0;entryY=0.75;entryDx=0;entryDy=0;endArrow=none;endFill=0;" parent="1" source="gtj9oNjg9Hfpf6i6Bz86-98" target="gtj9oNjg9Hfpf6i6Bz86-3" edge="1">
          <mxGeometry relative="1" as="geometry" />
        </mxCell>
        <mxCell id="gtj9oNjg9Hfpf6i6Bz86-98" value="average_rating" style="ellipse;whiteSpace=wrap;html=1;dashed=1;" parent="1" vertex="1">
          <mxGeometry x="90" y="435" width="99" height="30" as="geometry" />
        </mxCell>
        <mxCell id="gtj9oNjg9Hfpf6i6Bz86-99" style="edgeStyle=none;rounded=0;orthogonalLoop=1;jettySize=auto;html=1;exitX=0;exitY=0.5;exitDx=0;exitDy=0;entryX=1;entryY=0.25;entryDx=0;entryDy=0;endArrow=none;endFill=0;" parent="1" source="gtj9oNjg9Hfpf6i6Bz86-100" target="gtj9oNjg9Hfpf6i6Bz86-3" edge="1">
          <mxGeometry relative="1" as="geometry">
            <mxPoint x="349.17633702177955" y="409.33969500666717" as="sourcePoint" />
          </mxGeometry>
        </mxCell>
        <mxCell id="gtj9oNjg9Hfpf6i6Bz86-100" value="location" style="ellipse;whiteSpace=wrap;html=1;" parent="1" vertex="1">
          <mxGeometry x="374.5" y="375" width="99" height="30" as="geometry" />
        </mxCell>
        <mxCell id="gtj9oNjg9Hfpf6i6Bz86-101" style="edgeStyle=none;rounded=0;orthogonalLoop=1;jettySize=auto;html=1;exitX=1;exitY=0;exitDx=0;exitDy=0;entryX=0.25;entryY=1;entryDx=0;entryDy=0;endArrow=none;endFill=0;" parent="1" source="gtj9oNjg9Hfpf6i6Bz86-102" target="gtj9oNjg9Hfpf6i6Bz86-3" edge="1">
          <mxGeometry relative="1" as="geometry" />
        </mxCell>
        <mxCell id="gtj9oNjg9Hfpf6i6Bz86-102" value="total_food_sale_count" style="ellipse;whiteSpace=wrap;html=1;dashed=1;" parent="1" vertex="1">
          <mxGeometry x="129" y="490" width="134" height="30" as="geometry" />
        </mxCell>
        <mxCell id="gtj9oNjg9Hfpf6i6Bz86-103" style="edgeStyle=none;rounded=0;orthogonalLoop=1;jettySize=auto;html=1;exitX=0.5;exitY=0;exitDx=0;exitDy=0;entryX=0.75;entryY=1;entryDx=0;entryDy=0;endArrow=none;endFill=0;" parent="1" source="gtj9oNjg9Hfpf6i6Bz86-104" target="gtj9oNjg9Hfpf6i6Bz86-3" edge="1">
          <mxGeometry relative="1" as="geometry" />
        </mxCell>
        <mxCell id="gtj9oNjg9Hfpf6i6Bz86-104" value="order_count" style="ellipse;whiteSpace=wrap;html=1;dashed=1;" parent="1" vertex="1">
          <mxGeometry x="305.5" y="490" width="99" height="30" as="geometry" />
        </mxCell>
        <mxCell id="gtj9oNjg9Hfpf6i6Bz86-105" style="edgeStyle=none;rounded=0;orthogonalLoop=1;jettySize=auto;html=1;exitX=0;exitY=0.5;exitDx=0;exitDy=0;entryX=1;entryY=1;entryDx=0;entryDy=0;endArrow=none;endFill=0;" parent="1" source="gtj9oNjg9Hfpf6i6Bz86-106" target="gtj9oNjg9Hfpf6i6Bz86-4" edge="1">
          <mxGeometry relative="1" as="geometry" />
        </mxCell>
        <mxCell id="gtj9oNjg9Hfpf6i6Bz86-106" value="comment" style="ellipse;whiteSpace=wrap;html=1;shadow=0;sketch=0;" parent="1" vertex="1">
          <mxGeometry x="1141.75" y="565" width="90" height="30" as="geometry" />
        </mxCell>
        <mxCell id="gtj9oNjg9Hfpf6i6Bz86-107" style="edgeStyle=none;rounded=0;orthogonalLoop=1;jettySize=auto;html=1;exitX=0;exitY=0.5;exitDx=0;exitDy=0;entryX=1;entryY=0.75;entryDx=0;entryDy=0;endArrow=none;endFill=0;" parent="1" source="LTT-RdW8czctZ229jj61-3" target="gtj9oNjg9Hfpf6i6Bz86-3" edge="1">
          <mxGeometry relative="1" as="geometry">
            <mxPoint x="404.5000000000002" y="465" as="sourcePoint" />
          </mxGeometry>
        </mxCell>
        <mxCell id="gtj9oNjg9Hfpf6i6Bz86-108" value="" style="endArrow=none;html=1;rounded=0;entryX=0.5;entryY=0;entryDx=0;entryDy=0;startArrow=block;startFill=1;exitX=0.5;exitY=1;exitDx=0;exitDy=0;" parent="1" source="gtj9oNjg9Hfpf6i6Bz86-41" target="gtj9oNjg9Hfpf6i6Bz86-87" edge="1">
          <mxGeometry relative="1" as="geometry">
            <mxPoint x="270" y="160" as="sourcePoint" />
            <mxPoint x="580" y="550" as="targetPoint" />
          </mxGeometry>
        </mxCell>
        <mxCell id="gtj9oNjg9Hfpf6i6Bz86-109" value="" style="endArrow=none;html=1;rounded=0;exitX=0.5;exitY=1;exitDx=0;exitDy=0;entryX=0.5;entryY=0;entryDx=0;entryDy=0;" parent="1" source="gtj9oNjg9Hfpf6i6Bz86-87" target="gtj9oNjg9Hfpf6i6Bz86-3" edge="1">
          <mxGeometry relative="1" as="geometry">
            <mxPoint x="420" y="550" as="sourcePoint" />
            <mxPoint x="580" y="550" as="targetPoint" />
          </mxGeometry>
        </mxCell>
        <mxCell id="gtj9oNjg9Hfpf6i6Bz86-110" value="" style="group" parent="1" vertex="1" connectable="0">
          <mxGeometry x="487.5" y="535" width="352.5" height="215" as="geometry" />
        </mxCell>
        <mxCell id="gtj9oNjg9Hfpf6i6Bz86-111" value="Order&lt;span style=&quot;color: rgba(0 , 0 , 0 , 0) ; font-family: monospace ; font-size: 0px&quot;&gt;%3CmxGraphModel%3E%3Croot%3E%3CmxCell%20id%3D%220%22%2F%3E%3CmxCell%20id%3D%221%22%20parent%3D%220%22%2F%3E%3CmxCell%20id%3D%222%22%20value%3D%22customer_id%22%20style%3D%22ellipse%3BwhiteSpace%3Dwrap%3Bhtml%3D1%3B%22%20vertex%3D%221%22%20parent%3D%221%22%3E%3CmxGeometry%20x%3D%2280%22%20y%3D%2280%22%20width%3D%2290%22%20height%3D%2230%22%20as%3D%22geometry%22%2F%3E%3C%2FmxCell%3E%3C%2Froot%3E%3C%2FmxGraphModel%3E&lt;/span&gt;" style="rounded=0;whiteSpace=wrap;html=1;" parent="gtj9oNjg9Hfpf6i6Bz86-110" vertex="1">
          <mxGeometry x="99" y="45" width="120" height="60" as="geometry" />
        </mxCell>
        <mxCell id="gtj9oNjg9Hfpf6i6Bz86-114" value="payment_id" style="ellipse;whiteSpace=wrap;html=1;fontStyle=0" parent="gtj9oNjg9Hfpf6i6Bz86-110" vertex="1">
          <mxGeometry y="65" width="90" height="30" as="geometry" />
        </mxCell>
        <mxCell id="gtj9oNjg9Hfpf6i6Bz86-115" style="edgeStyle=none;rounded=0;orthogonalLoop=1;jettySize=auto;html=1;exitX=0.5;exitY=1;exitDx=0;exitDy=0;entryX=1;entryY=0;entryDx=0;entryDy=0;endArrow=none;endFill=0;" parent="gtj9oNjg9Hfpf6i6Bz86-110" source="gtj9oNjg9Hfpf6i6Bz86-116" target="gtj9oNjg9Hfpf6i6Bz86-111" edge="1">
          <mxGeometry relative="1" as="geometry" />
        </mxCell>
        <mxCell id="gtj9oNjg9Hfpf6i6Bz86-116" value="&lt;span&gt;customer_id&lt;/span&gt;" style="ellipse;whiteSpace=wrap;html=1;fontStyle=0" parent="gtj9oNjg9Hfpf6i6Bz86-110" vertex="1">
          <mxGeometry x="195" width="90" height="30" as="geometry" />
        </mxCell>
        <mxCell id="gtj9oNjg9Hfpf6i6Bz86-117" style="edgeStyle=none;rounded=0;orthogonalLoop=1;jettySize=auto;html=1;exitX=1;exitY=0.5;exitDx=0;exitDy=0;entryX=0;entryY=0;entryDx=0;entryDy=0;endArrow=none;endFill=0;" parent="gtj9oNjg9Hfpf6i6Bz86-110" source="gtj9oNjg9Hfpf6i6Bz86-118" target="gtj9oNjg9Hfpf6i6Bz86-111" edge="1">
          <mxGeometry relative="1" as="geometry" />
        </mxCell>
        <mxCell id="gtj9oNjg9Hfpf6i6Bz86-118" value="bussiness_id" style="ellipse;whiteSpace=wrap;html=1;fontStyle=0" parent="gtj9oNjg9Hfpf6i6Bz86-110" vertex="1">
          <mxGeometry y="15" width="90" height="30" as="geometry" />
        </mxCell>
        <mxCell id="gtj9oNjg9Hfpf6i6Bz86-119" style="edgeStyle=none;rounded=0;orthogonalLoop=1;jettySize=auto;html=1;exitX=0;exitY=1;exitDx=0;exitDy=0;entryX=1;entryY=0.25;entryDx=0;entryDy=0;endArrow=none;endFill=0;" parent="gtj9oNjg9Hfpf6i6Bz86-110" source="gtj9oNjg9Hfpf6i6Bz86-120" target="gtj9oNjg9Hfpf6i6Bz86-111" edge="1">
          <mxGeometry relative="1" as="geometry" />
        </mxCell>
        <mxCell id="gtj9oNjg9Hfpf6i6Bz86-120" value="rate_id" style="ellipse;whiteSpace=wrap;html=1;fontStyle=0" parent="gtj9oNjg9Hfpf6i6Bz86-110" vertex="1">
          <mxGeometry x="235" y="35" width="90" height="30" as="geometry" />
        </mxCell>
        <mxCell id="gtj9oNjg9Hfpf6i6Bz86-123" style="edgeStyle=none;rounded=0;orthogonalLoop=1;jettySize=auto;html=1;exitX=1;exitY=0;exitDx=0;exitDy=0;entryX=0.25;entryY=1;entryDx=0;entryDy=0;endArrow=none;endFill=0;" parent="gtj9oNjg9Hfpf6i6Bz86-110" source="LTT-RdW8czctZ229jj61-4" target="gtj9oNjg9Hfpf6i6Bz86-111" edge="1">
          <mxGeometry relative="1" as="geometry">
            <mxPoint x="129.31980515339478" y="119.39339828220182" as="sourcePoint" />
          </mxGeometry>
        </mxCell>
        <mxCell id="gtj9oNjg9Hfpf6i6Bz86-125" style="edgeStyle=none;rounded=0;orthogonalLoop=1;jettySize=auto;html=1;exitX=0;exitY=0;exitDx=0;exitDy=0;entryX=1;entryY=0.75;entryDx=0;entryDy=0;endArrow=none;endFill=0;" parent="gtj9oNjg9Hfpf6i6Bz86-110" source="gtj9oNjg9Hfpf6i6Bz86-126" target="gtj9oNjg9Hfpf6i6Bz86-111" edge="1">
          <mxGeometry relative="1" as="geometry" />
        </mxCell>
        <mxCell id="gtj9oNjg9Hfpf6i6Bz86-126" value="order_time" style="ellipse;whiteSpace=wrap;html=1;fontStyle=0" parent="gtj9oNjg9Hfpf6i6Bz86-110" vertex="1">
          <mxGeometry x="252.5" y="85" width="90" height="30" as="geometry" />
        </mxCell>
        <mxCell id="gtj9oNjg9Hfpf6i6Bz86-127" style="edgeStyle=none;rounded=0;orthogonalLoop=1;jettySize=auto;html=1;exitX=0;exitY=0;exitDx=0;exitDy=0;entryX=1;entryY=1;entryDx=0;entryDy=0;startArrow=none;startFill=0;endArrow=none;endFill=0;" parent="gtj9oNjg9Hfpf6i6Bz86-110" source="gtj9oNjg9Hfpf6i6Bz86-128" target="gtj9oNjg9Hfpf6i6Bz86-111" edge="1">
          <mxGeometry relative="1" as="geometry" />
        </mxCell>
        <mxCell id="gtj9oNjg9Hfpf6i6Bz86-128" value="total_price" style="ellipse;whiteSpace=wrap;html=1;fontStyle=0;dashed=1;" parent="gtj9oNjg9Hfpf6i6Bz86-110" vertex="1">
          <mxGeometry x="247.5" y="125" width="77.5" height="30" as="geometry" />
        </mxCell>
        <mxCell id="gtj9oNjg9Hfpf6i6Bz86-129" style="edgeStyle=none;rounded=0;orthogonalLoop=1;jettySize=auto;html=1;exitX=1;exitY=0.5;exitDx=0;exitDy=0;endArrow=none;endFill=0;entryX=0;entryY=0.5;entryDx=0;entryDy=0;" parent="gtj9oNjg9Hfpf6i6Bz86-110" source="gtj9oNjg9Hfpf6i6Bz86-114" target="gtj9oNjg9Hfpf6i6Bz86-111" edge="1">
          <mxGeometry relative="1" as="geometry">
            <mxPoint x="31.25" y="105" as="targetPoint" />
          </mxGeometry>
        </mxCell>
        <mxCell id="LTT-RdW8czctZ229jj61-4" value="food_id" style="ellipse;shape=doubleEllipse;margin=3;whiteSpace=wrap;html=1;align=center;" vertex="1" parent="gtj9oNjg9Hfpf6i6Bz86-110">
          <mxGeometry x="20" y="140" width="100" height="40" as="geometry" />
        </mxCell>
        <mxCell id="gtj9oNjg9Hfpf6i6Bz86-130" style="edgeStyle=none;rounded=0;orthogonalLoop=1;jettySize=auto;html=1;exitX=0.5;exitY=1;exitDx=0;exitDy=0;entryX=0.5;entryY=0;entryDx=0;entryDy=0;endArrow=none;endFill=0;" parent="1" source="gtj9oNjg9Hfpf6i6Bz86-111" target="gtj9oNjg9Hfpf6i6Bz86-16" edge="1">
          <mxGeometry relative="1" as="geometry" />
        </mxCell>
        <mxCell id="gtj9oNjg9Hfpf6i6Bz86-131" style="edgeStyle=none;rounded=0;orthogonalLoop=1;jettySize=auto;html=1;exitX=0.5;exitY=0;exitDx=0;exitDy=0;entryX=0.5;entryY=1;entryDx=0;entryDy=0;endArrow=none;endFill=0;startArrow=block;startFill=1;" parent="1" source="gtj9oNjg9Hfpf6i6Bz86-59" target="gtj9oNjg9Hfpf6i6Bz86-12" edge="1">
          <mxGeometry relative="1" as="geometry" />
        </mxCell>
        <mxCell id="gtj9oNjg9Hfpf6i6Bz86-133" style="edgeStyle=none;rounded=0;orthogonalLoop=1;jettySize=auto;html=1;exitX=0.5;exitY=1;exitDx=0;exitDy=0;entryX=0.5;entryY=0;entryDx=0;entryDy=0;endArrow=none;endFill=0;startArrow=block;startFill=1;" parent="1" source="gtj9oNjg9Hfpf6i6Bz86-20" target="gtj9oNjg9Hfpf6i6Bz86-89" edge="1">
          <mxGeometry relative="1" as="geometry" />
        </mxCell>
        <mxCell id="gtj9oNjg9Hfpf6i6Bz86-135" value="" style="endArrow=none;html=1;exitX=0.5;exitY=0;exitDx=0;exitDy=0;entryX=0;entryY=1;entryDx=0;entryDy=0;" parent="1" source="gtj9oNjg9Hfpf6i6Bz86-71" target="gtj9oNjg9Hfpf6i6Bz86-8" edge="1">
          <mxGeometry width="50" height="50" relative="1" as="geometry">
            <mxPoint x="525.5" y="930" as="sourcePoint" />
            <mxPoint x="635.5" y="960" as="targetPoint" />
          </mxGeometry>
        </mxCell>
        <mxCell id="gtj9oNjg9Hfpf6i6Bz86-136" value="" style="endArrow=none;html=1;entryX=0.5;entryY=1;entryDx=0;entryDy=0;exitX=0.5;exitY=0;exitDx=0;exitDy=0;" parent="1" source="gtj9oNjg9Hfpf6i6Bz86-70" target="gtj9oNjg9Hfpf6i6Bz86-8" edge="1">
          <mxGeometry width="50" height="50" relative="1" as="geometry">
            <mxPoint x="525.5" y="930" as="sourcePoint" />
            <mxPoint x="575.5" y="880" as="targetPoint" />
          </mxGeometry>
        </mxCell>
        <mxCell id="gtj9oNjg9Hfpf6i6Bz86-137" value="" style="endArrow=none;html=1;entryX=1;entryY=1;entryDx=0;entryDy=0;exitX=0.5;exitY=0;exitDx=0;exitDy=0;" parent="1" source="gtj9oNjg9Hfpf6i6Bz86-78" target="gtj9oNjg9Hfpf6i6Bz86-8" edge="1">
          <mxGeometry width="50" height="50" relative="1" as="geometry">
            <mxPoint x="525.5" y="930" as="sourcePoint" />
            <mxPoint x="575.5" y="880" as="targetPoint" />
          </mxGeometry>
        </mxCell>
        <mxCell id="LTT-RdW8czctZ229jj61-3" value="food_id" style="ellipse;shape=doubleEllipse;margin=3;whiteSpace=wrap;html=1;align=center;" vertex="1" parent="1">
          <mxGeometry x="379.5" y="445" width="100" height="40" as="geometry" />
        </mxCell>
        <mxCell id="LTT-RdW8czctZ229jj61-9" value="rating" style="ellipse;whiteSpace=wrap;html=1;" vertex="1" parent="1">
          <mxGeometry x="1141.75" y="455" width="83.5" height="30" as="geometry" />
        </mxCell>
        <mxCell id="LTT-RdW8czctZ229jj61-10" value="" style="endArrow=none;html=1;exitX=1;exitY=0.5;exitDx=0;exitDy=0;entryX=0;entryY=0.5;entryDx=0;entryDy=0;" edge="1" parent="1" source="gtj9oNjg9Hfpf6i6Bz86-4" target="LTT-RdW8czctZ229jj61-9">
          <mxGeometry width="50" height="50" relative="1" as="geometry">
            <mxPoint x="835" y="435" as="sourcePoint" />
            <mxPoint x="885" y="385" as="targetPoint" />
          </mxGeometry>
        </mxCell>
        <mxCell id="LTT-RdW8czctZ229jj61-12" value="order_id" style="ellipse;whiteSpace=wrap;html=1;" vertex="1" parent="1">
          <mxGeometry x="1141.75" y="515" width="83.5" height="30" as="geometry" />
        </mxCell>
        <mxCell id="LTT-RdW8czctZ229jj61-13" value="" style="endArrow=none;html=1;exitX=1;exitY=0.75;exitDx=0;exitDy=0;entryX=0;entryY=0.5;entryDx=0;entryDy=0;" edge="1" parent="1" source="gtj9oNjg9Hfpf6i6Bz86-4" target="LTT-RdW8czctZ229jj61-12">
          <mxGeometry width="50" height="50" relative="1" as="geometry">
            <mxPoint x="835" y="435" as="sourcePoint" />
            <mxPoint x="885" y="385" as="targetPoint" />
          </mxGeometry>
        </mxCell>
        <mxCell id="LTT-RdW8czctZ229jj61-14" value="customer_id" style="ellipse;whiteSpace=wrap;html=1;shadow=0;sketch=0;" vertex="1" parent="1">
          <mxGeometry x="1141.75" y="615" width="90" height="30" as="geometry" />
        </mxCell>
        <mxCell id="LTT-RdW8czctZ229jj61-15" value="" style="endArrow=none;html=1;entryX=1;entryY=1;entryDx=0;entryDy=0;exitX=0;exitY=0.5;exitDx=0;exitDy=0;" edge="1" parent="1" source="LTT-RdW8czctZ229jj61-14" target="gtj9oNjg9Hfpf6i6Bz86-4">
          <mxGeometry width="50" height="50" relative="1" as="geometry">
            <mxPoint x="835" y="575" as="sourcePoint" />
            <mxPoint x="885" y="525" as="targetPoint" />
          </mxGeometry>
        </mxCell>
        <mxCell id="gtj9oNjg9Hfpf6i6Bz86-113" value="order_id" style="ellipse;whiteSpace=wrap;html=1;fontStyle=4" parent="1" vertex="1">
          <mxGeometry x="552" y="510" width="90" height="30" as="geometry" />
        </mxCell>
        <mxCell id="gtj9oNjg9Hfpf6i6Bz86-112" style="edgeStyle=none;rounded=0;orthogonalLoop=1;jettySize=auto;html=1;exitX=0.5;exitY=1;exitDx=0;exitDy=0;endArrow=none;endFill=0;entryX=0.25;entryY=0;entryDx=0;entryDy=0;" parent="1" source="gtj9oNjg9Hfpf6i6Bz86-113" target="gtj9oNjg9Hfpf6i6Bz86-111" edge="1">
          <mxGeometry relative="1" as="geometry">
            <mxPoint x="640" y="520" as="targetPoint" />
          </mxGeometry>
        </mxCell>
        <mxCell id="LTT-RdW8czctZ229jj61-18" value="" style="endArrow=none;html=1;exitX=0.5;exitY=1;exitDx=0;exitDy=0;entryX=0;entryY=0.5;entryDx=0;entryDy=0;" edge="1" parent="1" target="LTT-RdW8czctZ229jj61-17">
          <mxGeometry width="50" height="50" relative="1" as="geometry">
            <mxPoint x="490" y="270" as="sourcePoint" />
            <mxPoint x="580" y="180" as="targetPoint" />
          </mxGeometry>
        </mxCell>
        <mxCell id="LTT-RdW8czctZ229jj61-19" value="" style="endArrow=classic;html=1;exitX=1;exitY=0.5;exitDx=0;exitDy=0;entryX=0;entryY=1;entryDx=0;entryDy=0;" edge="1" parent="1" source="gtj9oNjg9Hfpf6i6Bz86-84" target="gtj9oNjg9Hfpf6i6Bz86-4">
          <mxGeometry width="50" height="50" relative="1" as="geometry">
            <mxPoint x="1010" y="665" as="sourcePoint" />
            <mxPoint x="1060" y="615" as="targetPoint" />
          </mxGeometry>
        </mxCell>
        <mxCell id="LTT-RdW8czctZ229jj61-20" value="" style="endArrow=classic;html=1;entryX=1;entryY=0.5;entryDx=0;entryDy=0;exitX=0;exitY=0.5;exitDx=0;exitDy=0;" edge="1" parent="1" source="gtj9oNjg9Hfpf6i6Bz86-84" target="gtj9oNjg9Hfpf6i6Bz86-111">
          <mxGeometry width="50" height="50" relative="1" as="geometry">
            <mxPoint x="962" y="695" as="sourcePoint" />
            <mxPoint x="1012" y="645" as="targetPoint" />
          </mxGeometry>
        </mxCell>
        <mxCell id="LTT-RdW8czctZ229jj61-21" value="&lt;table border=&quot;0&quot; cellpadding=&quot;0&quot; cellspacing=&quot;0&quot; width=&quot;72&quot; style=&quot;border-collapse: collapse ; width: 54pt&quot;&gt;&lt;tbody&gt;&lt;tr style=&quot;height: 14.25pt&quot;&gt;  &lt;td height=&quot;19&quot; width=&quot;72&quot; style=&quot;height: 14.25pt ; width: 54pt&quot;&gt;payment_time&lt;/td&gt;&lt;/tr&gt;&lt;/tbody&gt;&lt;/table&gt;" style="ellipse;whiteSpace=wrap;html=1;" vertex="1" parent="1">
          <mxGeometry x="733.5" y="760" width="106.5" height="40" as="geometry" />
        </mxCell>
        <mxCell id="LTT-RdW8czctZ229jj61-22" value="" style="endArrow=none;html=1;exitX=1;exitY=0;exitDx=0;exitDy=0;entryX=0;entryY=0.5;entryDx=0;entryDy=0;" edge="1" parent="1" source="gtj9oNjg9Hfpf6i6Bz86-8" target="LTT-RdW8czctZ229jj61-21">
          <mxGeometry width="50" height="50" relative="1" as="geometry">
            <mxPoint x="670" y="740" as="sourcePoint" />
            <mxPoint x="720" y="690" as="targetPoint" />
          </mxGeometry>
        </mxCell>
        <mxCell id="LTT-RdW8czctZ229jj61-23" value="" style="endArrow=classic;html=1;entryX=0;entryY=1;entryDx=0;entryDy=0;exitX=1;exitY=0.5;exitDx=0;exitDy=0;" edge="1" parent="1" source="gtj9oNjg9Hfpf6i6Bz86-82" target="gtj9oNjg9Hfpf6i6Bz86-111">
          <mxGeometry width="50" height="50" relative="1" as="geometry">
            <mxPoint x="420" y="740" as="sourcePoint" />
            <mxPoint x="470" y="690" as="targetPoint" />
          </mxGeometry>
        </mxCell>
        <mxCell id="LTT-RdW8czctZ229jj61-24" value="business_id" style="ellipse;whiteSpace=wrap;html=1;" vertex="1" parent="1">
          <mxGeometry x="241" y="855" width="99" height="30" as="geometry" />
        </mxCell>
        <mxCell id="LTT-RdW8czctZ229jj61-25" value="" style="endArrow=none;html=1;exitX=0.5;exitY=1;exitDx=0;exitDy=0;entryX=0.5;entryY=0;entryDx=0;entryDy=0;" edge="1" parent="1" source="gtj9oNjg9Hfpf6i6Bz86-6" target="LTT-RdW8czctZ229jj61-24">
          <mxGeometry width="50" height="50" relative="1" as="geometry">
            <mxPoint x="420" y="740" as="sourcePoint" />
            <mxPoint x="470" y="690" as="targetPoint" />
          </mxGeometry>
        </mxCell>
        <mxCell id="LTT-RdW8czctZ229jj61-28" value="businessholder_id" style="ellipse;whiteSpace=wrap;html=1;" vertex="1" parent="1">
          <mxGeometry x="100" y="305" width="99" height="30" as="geometry" />
        </mxCell>
        <mxCell id="LTT-RdW8czctZ229jj61-29" value="" style="endArrow=none;html=1;entryX=1;entryY=0.5;entryDx=0;entryDy=0;exitX=0.5;exitY=0;exitDx=0;exitDy=0;" edge="1" parent="1" source="gtj9oNjg9Hfpf6i6Bz86-3" target="LTT-RdW8czctZ229jj61-28">
          <mxGeometry width="50" height="50" relative="1" as="geometry">
            <mxPoint x="420" y="390" as="sourcePoint" />
            <mxPoint x="470" y="340" as="targetPoint" />
          </mxGeometry>
        </mxCell>
      </root>
    </mxGraphModel>
  </diagram>
</mxfile>
